# xmcd
#
# Track frame offsets:
#	150
#	17065
#	31215
#	52817
#	65840
#	76325
#	90305
#	105662
#	118202
#	132212
#	147025
#	161162
#	174757
#	188670
#	204037
#	218822
#
# Disc length: 3127 seconds
#
# Revision: 1
# Processed by: cddbd v1.5.1PL0 Copyright (c) Steve Scherf et al.
# Submitted via: audiograbber 1.83.01
#
DISCID=cb0c3510
DTITLE=Various Artist - 100% Country CD2
DYEAR=1900
DGENRE=Country
TTITLE0=Western Union - Danke
TTITLE1=Tom Astor - Take it easy, nimm´s leicht
TTITLE2=Gunter Gabriel and Linda Feller - Wenn ich nur ein Trucker wär
TTITLE3=Mike Herman and Booze Company - Verliebt in Country
TTITLE4=Jonny Hill - Rauch in den Haaren
TTITLE5=Larry Schuba and Western Union - Einfach mal einfach nichts tun
TTITLE6=Frank Faber - Wir versuchen´s nochmal mit Liebe
TTITLE7=Truck Stop - Der wilde, wilde Westen
TTITLE8=Tom Astor - Du bist da (wenn´s drum geht)
TTITLE9=Hanna and Daana - Wenn du wieder da bist
TTITLE10=Mike Herman - Tausend Tage, tausend Nächte
TTITLE11=Iris McCollins - Das geht ganz tief rein
TTITLE12=Jonny Hill - Suchst du Gold
TTITLE13=Linda Feller - Lebenslänglich Liebe pur
TTITLE14=Greyhounds - Dank Gott für das Radio
TTITLE15=Frank Faber - Ich bin ein schlechter Verlierer
EXTD=
EXTT0=
EXTT1=
EXTT2=
EXTT3=
EXTT4=
EXTT5=
EXTT6=
EXTT7=
EXTT8=
EXTT9=
EXTT10=
EXTT11=
EXTT12=
EXTT13=
EXTT14=
EXTT15=
PLAYORDER=
